<svg xmlns="http://www.w3.org/2000/svg" viewBox="0 0 128 160" width="128" height="160">
  <defs>
    <linearGradient id="grad-contacts" x1="0%" y1="0%" x2="100%" y2="100%">
      <stop offset="0%" style="stop-color:rgba(0,229,255,0.2);stop-opacity:1" />
      <stop offset="100%" style="stop-color:rgba(0,229,255,0.5);stop-opacity:1" />
    </linearGradient>
    <filter id="glow-contacts">
      <feGaussianBlur stdDeviation="2.5" result="coloredBlur"/>
      <feMerge>
        <feMergeNode in="coloredBlur"/>
        <feMergeNode in="SourceGraphic"/>
      </feMerge>
    </filter>
    <pattern id="circuit-contacts" x="0" y="0" width="20" height="20" patternUnits="userSpaceOnUse">
      <path d="M10,0 V20 M0,10 H20" stroke="#008BA3" stroke-width="1" opacity="0.2"/>
      <circle cx="10" cy="10" r="1.5" fill="#008BA3" opacity="0.4"/>
    </pattern>
  </defs>
  
  <circle cx="64" cy="64" r="60" fill="rgba(0, 20, 40, 0.9)" stroke="#00E5FF" stroke-width="3" filter="url(#glow-contacts)"/>
  <circle cx="64" cy="64" r="60" fill="url(#circuit-contacts)"/>
  
  <g transform="translate(32, 32) scale(2.5)" stroke="white" stroke-width="2" fill="none" stroke-linecap="round" stroke-linejoin="round" filter="url(#glow-contacts)">
    <path d="M16 21v-2a4 4 0 0 0-4-4H6a4 4 0 0 0-4 4v2" /><circle cx="9" cy="7" r="4" /><path d="M22 21v-2a4 4 0 0 0-3-3.87" /><path d="M16 3.13a4 4 0 0 1 0 7.75" />
  </g>
  
  <text x="64" y="145" text-anchor="middle" font-family="Arial, sans-serif" font-weight="bold" font-size="12" stroke="black" stroke-width="3" fill="none">contacts</text>
  <text x="64" y="145" text-anchor="middle" font-family="Arial, sans-serif" font-weight="bold" font-size="12" fill="white">contacts</text>
</svg>