<svg xmlns="http://www.w3.org/2000/svg" viewBox="0 0 128 160" width="128" height="160">
  <defs>
    <linearGradient id="grad-list_call_logs" x1="0%" y1="0%" x2="100%" y2="100%">
      <stop offset="0%" style="stop-color:rgba(0,229,255,0.2);stop-opacity:1" />
      <stop offset="100%" style="stop-color:rgba(0,229,255,0.5);stop-opacity:1" />
    </linearGradient>
    <filter id="glow-list_call_logs">
      <feGaussianBlur stdDeviation="2.5" result="coloredBlur"/>
      <feMerge>
        <feMergeNode in="coloredBlur"/>
        <feMergeNode in="SourceGraphic"/>
      </feMerge>
    </filter>
    <pattern id="circuit-list_call_logs" x="0" y="0" width="20" height="20" patternUnits="userSpaceOnUse">
      <path d="M10,0 V20 M0,10 H20" stroke="#008BA3" stroke-width="1" opacity="0.2"/>
      <circle cx="10" cy="10" r="1.5" fill="#008BA3" opacity="0.4"/>
    </pattern>
  </defs>
  
  <circle cx="64" cy="64" r="60" fill="rgba(0, 20, 40, 0.9)" stroke="#00E5FF" stroke-width="3" filter="url(#glow-list_call_logs)"/>
  <circle cx="64" cy="64" r="60" fill="url(#circuit-list_call_logs)"/>
  
  <g transform="translate(32, 32) scale(2.5)" stroke="white" stroke-width="2" fill="none" stroke-linecap="round" stroke-linejoin="round" filter="url(#glow-list_call_logs)">
    <path d="M22 16.92v3a2 2 0 0 1-2.18 2 19.79 19.79 0 0 1-8.63-3.07 19.5 19.5 0 0 1-6-6 19.79 19.79 0 0 1-3.07-8.67A2 2 0 0 1 4.11 2h3a2 2 0 0 1 2 1.72 12.84 12.84 0 0 0 .7 2.81 2 2 0 0 1-.45 2.11L8.09 9.91a16 16 0 0 0 6 6l1.27-1.27a2 2 0 0 1 2.11-.45 12.84 12.84 0 0 0 2.81.7A2 2 0 0 1 22 16.92z" /><line x1="2" y1="6" x2="22" y2="6" /><line x1="2" y1="18" x2="22" y2="18" />
  </g>
  
  <text x="64" y="145" text-anchor="middle" font-family="Arial, sans-serif" font-weight="bold" font-size="12" stroke="black" stroke-width="3" fill="none">list_call_logs</text>
  <text x="64" y="145" text-anchor="middle" font-family="Arial, sans-serif" font-weight="bold" font-size="12" fill="white">list_call_logs</text>
</svg>