<svg xmlns="http://www.w3.org/2000/svg" viewBox="0 0 128 160" width="128" height="160">
  <defs>
    <linearGradient id="grad-openai" x1="0%" y1="0%" x2="100%" y2="100%">
      <stop offset="0%" style="stop-color:rgba(0,229,255,0.2);stop-opacity:1" />
      <stop offset="100%" style="stop-color:rgba(0,229,255,0.5);stop-opacity:1" />
    </linearGradient>
    <filter id="glow-openai">
      <feGaussianBlur stdDeviation="2.5" result="coloredBlur"/>
      <feMerge>
        <feMergeNode in="coloredBlur"/>
        <feMergeNode in="SourceGraphic"/>
      </feMerge>
    </filter>
    <pattern id="circuit-openai" x="0" y="0" width="20" height="20" patternUnits="userSpaceOnUse">
      <path d="M10,0 V20 M0,10 H20" stroke="#008BA3" stroke-width="1" opacity="0.2"/>
      <circle cx="10" cy="10" r="1.5" fill="#008BA3" opacity="0.4"/>
    </pattern>
  </defs>
  
  <circle cx="64" cy="64" r="60" fill="rgba(0, 20, 40, 0.9)" stroke="#00E5FF" stroke-width="3" filter="url(#glow-openai)"/>
  <circle cx="64" cy="64" r="60" fill="url(#circuit-openai)"/>
  
  <g transform="translate(32, 32) scale(2.5)" stroke="white" stroke-width="2" fill="none" stroke-linecap="round" stroke-linejoin="round" filter="url(#glow-openai)">
    <path d="M12 2a10 10 0 1 0 10 10A10 10 0 0 0 12 2zm0 18a8 8 0 1 1 8-8 8 8 0 0 1-8 8z" /><circle cx="12" cy="12" r="4" />
  </g>
  
  <text x="64" y="145" text-anchor="middle" font-family="Arial, sans-serif" font-weight="bold" font-size="12" stroke="black" stroke-width="3" fill="none">openai</text>
  <text x="64" y="145" text-anchor="middle" font-family="Arial, sans-serif" font-weight="bold" font-size="12" fill="white">openai</text>
</svg>