<svg xmlns="http://www.w3.org/2000/svg" viewBox="0 0 128 160" width="128" height="160">
  <defs>
    <linearGradient id="grad-settings" x1="0%" y1="0%" x2="100%" y2="100%">
      <stop offset="0%" style="stop-color:rgba(0,229,255,0.2);stop-opacity:1" />
      <stop offset="100%" style="stop-color:rgba(0,229,255,0.5);stop-opacity:1" />
    </linearGradient>
    <filter id="glow-settings">
      <feGaussianBlur stdDeviation="2.5" result="coloredBlur"/>
      <feMerge>
        <feMergeNode in="coloredBlur"/>
        <feMergeNode in="SourceGraphic"/>
      </feMerge>
    </filter>
    <pattern id="circuit-settings" x="0" y="0" width="20" height="20" patternUnits="userSpaceOnUse">
      <path d="M10,0 V20 M0,10 H20" stroke="#008BA3" stroke-width="1" opacity="0.2"/>
      <circle cx="10" cy="10" r="1.5" fill="#008BA3" opacity="0.4"/>
    </pattern>
  </defs>
  
  <circle cx="64" cy="64" r="60" fill="rgba(0, 20, 40, 0.9)" stroke="#00E5FF" stroke-width="3" filter="url(#glow-settings)"/>
  <circle cx="64" cy="64" r="60" fill="url(#circuit-settings)"/>
  
  <g transform="translate(32, 32) scale(2.5)" stroke="white" stroke-width="2" fill="none" stroke-linecap="round" stroke-linejoin="round" filter="url(#glow-settings)">
    <path d="M12.22 2h-.44a2 2 0 0 0-2 2v.18a2 2 0 0 1-1 1.73l-.43.25a2 2 0 0 1-2 0l-.15-.08a2 2 0 0 0-2.73.73l-.22.38a2 2 0 0 0 .73 2.73l.15.1a2 2 0 0 1 1 1.72v.51a2 2 0 0 1-1 1.74l-.15.09a2 2 0 0 0-.73 2.73l.22.38a2 2 0 0 0 2.73.73l.15-.08a2 2 0 0 1 2 0l.43.25a2 2 0 0 1 1 1.73V20a2 2 0 0 0 2 2h.44a2 2 0 0 0 2-2v-.18a2 2 0 0 1 1-1.73l.43-.25a2 2 0 0 1 2 0l.15.08a2 2 0 0 0 2.73-.73l.22-.39a2 2 0 0 0-.73-2.73l-.15-.09a2 2 0 0 1-1-1.74v-.5a2 2 0 0 1 1-1.74l.15-.09a2 2 0 0 0 .73-2.73l-.22-.38a2 2 0 0 0-2.73-.73l-.15.08a2 2 0 0 1-2 0l-.43-.25a2 2 0 0 1-1-1.73V4a2 2 0 0 0-2-2z" /><circle cx="12" cy="12" r="3" />
  </g>
  
  <text x="64" y="145" text-anchor="middle" font-family="Arial, sans-serif" font-weight="bold" font-size="12" stroke="black" stroke-width="3" fill="none">settings</text>
  <text x="64" y="145" text-anchor="middle" font-family="Arial, sans-serif" font-weight="bold" font-size="12" fill="white">settings</text>
</svg>